<svg width="359" height="376" viewBox="0 0 359 376" fill="none" xmlns="http://www.w3.org/2000/svg">
<path d="M108.041 28.5446C136.451 28.5446 163.699 39.8307 183.788 59.9202C195.781 71.9137 204.637 86.4583 209.827 102.279C210.876 105.476 211.776 108.726 212.521 112.017C213.115 114.642 213.611 117.294 214.007 119.967C214.445 122.925 214.761 125.908 214.951 128.91C215.092 131.153 215.164 143.145 215.164 145.406V150.573L165.349 127.32L154.418 122.153C152.277 113.913 148.25 107.704 142.127 101.581C133.087 92.5411 120.825 87.4623 108.04 87.4623C95.2556 87.4623 82.9944 92.541 73.9541 101.581C64.9139 110.622 59.8351 122.883 59.8351 135.668L58.9507 170.845C58.9507 170.845 59.4778 174.852 59.9089 177.404C60.6163 181.592 61.1574 183.93 62.1086 188.041L62.1306 188.136C63.0514 192.116 63.3932 194.695 63.3932 194.695L8.93729 217.749L7.47572 211.985C6.44642 208.209 5.28295 203.042 4.29595 198.272C3.10334 192.509 1.71228 186.149 1.51365 179.59C0.741636 173.065 1.11618 166.274 0.917439 159.914C0.917349 157.092 0.917358 154.345 0.917366 151.673C0.917372 150.019 0.917377 148.394 0.917358 146.797C0.917453 143.816 1.57852 123.703 1.74782 122.352C2.27752 118.123 3.05762 113.942 4.07949 109.831C5.18877 105.368 6.58294 100.987 8.25093 96.7138C9.62644 93.1902 11.1882 89.7403 12.9299 86.3791C14.4424 83.4603 16.0907 80.6084 17.8706 77.8331C21.9897 71.4108 26.8139 65.3993 32.293 59.9202C52.3825 39.8307 79.6297 28.5446 108.041 28.5446Z" fill="url(#paint0_linear_101_10)"/>
<path d="M356.272 135.668C356.272 107.257 344.986 80.0097 324.896 59.9202C304.807 39.8307 277.56 28.5446 249.149 28.5446C221.682 28.5446 207.76 29.7083 188.602 48.0215C194.763 53.1889 204.76 66.0325 207.085 69.2871C208.241 70.9051 215.631 84.6799 216.227 86.5779C218.612 91.944 220.6 96.3163 220.6 96.3163C229.742 88.7641 236.364 87.4623 249.149 87.4623C261.934 87.4623 274.195 92.5411 283.235 101.581C292.276 110.622 297.354 122.883 297.354 135.668V175.417L296.847 178.994C296.847 178.994 295.923 183.462 295.456 186.347C295.328 187.142 295.328 187.341 295.129 187.937L348.79 212.979L349.316 211.389L350.906 205.824L351.9 201.651L353.291 196.285L355.477 183.565L356.073 178.994L356.272 175.417V135.668Z" fill="url(#paint1_linear_101_10)"/>
<path d="M321.761 267.038C309.041 284.13 310.94 280.9 292.888 295.906C274.835 310.913 253.967 322.261 231.476 329.301C208.984 336.341 193.955 339.391 170.448 337.393L171.839 307.383L173.23 279.558C189.057 280.904 198.601 278.765 213.745 274.025C228.888 269.285 242.938 261.645 255.093 251.541C256.87 250.063 258.603 248.537 260.287 246.964L262.163 245.176C262.768 244.585 264.725 242.399 265.317 241.797C266.311 242.393 309.041 263.659 310.035 264.056C311.028 264.454 314.208 265.646 316.991 266.243C319.972 266.881 320.568 267.038 321.761 267.038Z" fill="url(#paint2_linear_101_10)"/>
<path d="M96.1872 247.362C92.6098 249.151 90.4237 249.649 83.8651 252.927C79.8902 254.683 58.0284 264.653 52.6623 267.236C47.4949 269.422 46.5012 269.82 43.2513 270.814C38.9559 272.127 39.1477 271.807 39.1477 271.807C39.1477 271.807 39.8208 272.714 43.2513 276.609C46.73 280.558 50.3961 284.368 54.243 288.023C56.6183 290.28 59.0504 292.467 61.5358 294.582C67.5342 299.687 73.8433 304.373 80.4165 308.622C107.144 325.899 138.236 335.939 170.546 337.406L173.24 279.503C143.914 278.171 118.736 268.857 97.5784 248.753C95.7932 247.057 96.1872 247.362 96.1872 247.362Z" fill="url(#paint3_linear_101_10)"/>
<path d="M135.537 177.205L175.882 197.477L45.6891 257.107C29.1481 264.683 9.59322 257.49 1.90433 241.001C0.318145 237.599 1.87399 233.561 5.33239 232.103L135.537 177.205Z" fill="url(#paint4_diamond_101_10)"/>
<path d="M142.095 167.363L151.964 134.336L353.121 228.137C356.368 229.651 357.773 233.51 356.259 236.757C348.553 253.281 328.745 260.209 312.42 252.089L142.095 167.363Z" fill="#FF1856"/>
<defs>
<linearGradient id="paint0_linear_101_10" x1="180.383" y1="138.251" x2="97.9045" y2="317.519" gradientUnits="userSpaceOnUse">
<stop offset="0.078125" stop-color="#02FFC6"/>
<stop offset="0.927083" stop-color="#027DFE"/>
</linearGradient>
<linearGradient id="paint1_linear_101_10" x1="179.39" y1="134.873" x2="270.812" y2="320.897" gradientUnits="userSpaceOnUse">
<stop offset="0.078125" stop-color="#FF1755"/>
<stop offset="0.927083" stop-color="#1F6FEB"/>
</linearGradient>
<linearGradient id="paint2_linear_101_10" x1="46.9697" y1="243.918" x2="300.514" y2="259.656" gradientUnits="userSpaceOnUse">
<stop offset="0.078125" stop-color="#039EF1"/>
<stop offset="0.53125" stop-color="#3865DB"/>
<stop offset="0.927083" stop-color="#734FB4"/>
</linearGradient>
<linearGradient id="paint3_linear_101_10" x1="46.9697" y1="243.918" x2="300.514" y2="259.656" gradientUnits="userSpaceOnUse">
<stop offset="0.078125" stop-color="#039EF1"/>
<stop offset="0.53125" stop-color="#3865DB"/>
<stop offset="0.927083" stop-color="#734FB4"/>
</linearGradient>
<radialGradient id="paint4_diamond_101_10" cx="0" cy="0" r="1" gradientUnits="userSpaceOnUse" gradientTransform="translate(13.2395 250.542) rotate(-23.51) scale(158.433 36.7015)">
<stop stop-color="#01FFC5"/>
<stop offset="0.927083" stop-color="#02FFC6"/>
</radialGradient>
</defs>
</svg>
